<svg width="28" height="28" viewBox="0 0 28 28" fill="none" xmlns="http://www.w3.org/2000/svg">
<path d="M6.82565 19.9507C7.81732 19.1923 8.92565 18.5944 10.1507 18.1569C11.3757 17.7194 12.659 17.5007 14.0007 17.5007C15.3423 17.5007 16.6257 17.7194 17.8507 18.1569C19.0757 18.5944 20.184 19.1923 21.1756 19.9507C21.8562 19.1534 22.3861 18.2493 22.7652 17.2382C23.1444 16.227 23.334 15.1479 23.334 14.0007C23.334 11.4145 22.425 9.21246 20.6069 7.3944C18.7888 5.57635 16.5868 4.66732 14.0007 4.66732C11.4145 4.66732 9.21246 5.57635 7.3944 7.3944C5.57635 9.21246 4.66732 11.4145 4.66732 14.0007C4.66732 15.1479 4.8569 16.227 5.23607 17.2382C5.61523 18.2493 6.1451 19.1534 6.82565 19.9507ZM14.0007 15.1673C12.8534 15.1673 11.8861 14.7736 11.0986 13.9861C10.3111 13.1986 9.91732 12.2312 9.91732 11.084C9.91732 9.93676 10.3111 8.9694 11.0986 8.1819C11.8861 7.3944 12.8534 7.00065 14.0007 7.00065C15.1479 7.00065 16.1152 7.3944 16.9027 8.1819C17.6902 8.9694 18.084 9.93676 18.084 11.084C18.084 12.2312 17.6902 13.1986 16.9027 13.9861C16.1152 14.7736 15.1479 15.1673 14.0007 15.1673ZM14.0007 25.6673C12.3868 25.6673 10.8701 25.3611 9.45065 24.7486C8.03121 24.1361 6.79648 23.3048 5.74648 22.2548C4.69648 21.2048 3.86523 19.9701 3.25273 18.5507C2.64023 17.1312 2.33398 15.6145 2.33398 14.0007C2.33398 12.3868 2.64023 10.8701 3.25273 9.45065C3.86523 8.03121 4.69648 6.79648 5.74648 5.74648C6.79648 4.69648 8.03121 3.86523 9.45065 3.25273C10.8701 2.64023 12.3868 2.33398 14.0007 2.33398C15.6145 2.33398 17.1312 2.64023 18.5507 3.25273C19.9701 3.86523 21.2048 4.69648 22.2548 5.74648C23.3048 6.79648 24.1361 8.03121 24.7486 9.45065C25.3611 10.8701 25.6673 12.3868 25.6673 14.0007C25.6673 15.6145 25.3611 17.1312 24.7486 18.5507C24.1361 19.9701 23.3048 21.2048 22.2548 22.2548C21.2048 23.3048 19.9701 24.1361 18.5507 24.7486C17.1312 25.3611 15.6145 25.6673 14.0007 25.6673Z" fill="#1D1B20"/>
</svg>
